<svg width="24" height="25" viewBox="0 0 24 25" fill="none" xmlns="http://www.w3.org/2000/svg">
<g clip-path="url(#clip0)">
<path d="M6.75 10.3457H6V11.0957H6.75V10.3457Z" fill="#1990D1"/>
<path d="M10.5 10.3457H9.75V11.0957H10.5V10.3457Z" fill="#1990D1"/>
<path d="M22.9283 14.4747L21.4631 14.2655C21.3935 14.0606 21.3112 13.8602 21.2168 13.6655L22.1033 12.4835C22.1574 12.4113 22.1837 12.3219 22.1773 12.2319C22.1709 12.1419 22.1322 12.0572 22.0684 11.9934L20.4773 10.4022C20.4161 10.3415 20.3358 10.304 20.25 10.2961V6.68635C20.6009 6.40544 20.8841 6.04928 21.0789 5.64419C21.2736 5.23911 21.3748 4.79544 21.375 4.34598C21.3785 3.77766 21.2187 3.22029 20.9147 2.74009C20.6107 2.25988 20.1753 1.87702 19.6601 1.63698C19.603 1.60999 19.54 1.59789 19.4769 1.60179C19.4138 1.60569 19.3527 1.62547 19.2993 1.65929C19.246 1.69311 19.202 1.73988 19.1715 1.79524C19.141 1.85061 19.125 1.91278 19.125 1.97598V4.07598L18.375 4.3261L17.625 4.07598V1.97598C17.6248 1.91291 17.6086 1.85092 17.578 1.79576C17.5474 1.74059 17.5034 1.69403 17.4501 1.66039C17.3967 1.62674 17.3358 1.60709 17.2728 1.60326C17.2098 1.59944 17.1469 1.61155 17.0899 1.63848C16.575 1.87842 16.1397 2.26105 15.8357 2.74096C15.5318 3.22087 15.3719 3.77791 15.375 4.34598C15.3752 4.79544 15.4765 5.23911 15.6712 5.64419C15.8659 6.04928 16.1492 6.40544 16.5 6.68635V9.22098H15.375C15.2848 9.22097 15.1976 9.2535 15.1294 9.3126C15.0612 9.3717 15.0166 9.4534 15.0038 9.54273L14.7611 11.2411L15.5036 11.3472L15.7001 9.97098H17.2999L17.4964 11.3472C17.5066 11.4185 17.5372 11.4854 17.5844 11.5398C17.6316 11.5942 17.6935 11.6338 17.7626 11.654C18.0752 11.7443 18.377 11.8684 18.6626 12.0241C18.7258 12.0588 18.7977 12.0745 18.8696 12.0693C18.9415 12.0642 19.0104 12.0385 19.068 11.9952L20.1784 11.1627L21.3094 12.2937L20.475 13.4041C20.4318 13.4618 20.406 13.5306 20.4009 13.6025C20.3958 13.6744 20.4115 13.7463 20.4461 13.8095C20.6019 14.0951 20.726 14.3969 20.8163 14.7095C20.8364 14.7786 20.8761 14.8405 20.9305 14.8877C20.9849 14.9349 21.0517 14.9655 21.123 14.9757L22.4993 15.1722V16.772L21.123 16.9685C21.0517 16.9787 20.9849 17.0093 20.9305 17.0565C20.8761 17.1037 20.8364 17.1656 20.8163 17.2347C20.726 17.5473 20.6019 17.8491 20.4461 18.1347C20.4115 18.1979 20.3958 18.2698 20.4009 18.3417C20.406 18.4136 20.4318 18.4825 20.475 18.5401L21.3075 19.6505L20.1765 20.7815L19.0669 19.946C19.0092 19.9027 18.9404 19.877 18.8685 19.8719C18.7966 19.8667 18.7247 19.8824 18.6615 19.9171C18.3759 20.0728 18.0741 20.1969 17.7615 20.2872C17.6924 20.3074 17.6305 20.347 17.5833 20.4014C17.5361 20.4558 17.5055 20.5227 17.4953 20.594L17.2999 21.971H15.75V20.3851C15.7498 19.9889 15.6929 19.5948 15.5813 19.2147C16.2955 19.4238 17.0586 19.394 17.7543 19.1297C18.4501 18.8654 19.0405 18.3811 19.4357 17.7505C19.831 17.1198 20.0095 16.3774 19.9442 15.636C19.8788 14.8946 19.5731 14.1949 19.0736 13.6432C18.574 13.0915 17.908 12.718 17.1767 12.5795C16.4455 12.441 15.689 12.5451 15.0223 12.876C14.3557 13.2069 13.8153 13.7464 13.4834 14.4125C13.1515 15.0787 13.0462 15.835 13.1835 16.5665C13.1745 16.5627 13.1659 16.5582 13.1569 16.5549L10.125 15.3421V14.7657C10.6261 14.5094 11.07 14.1539 11.4296 13.721H12.375C12.6734 13.721 12.9595 13.6025 13.1705 13.3915C13.3815 13.1805 13.5 12.8943 13.5 12.596V11.777C13.7186 11.6997 13.908 11.5568 14.0422 11.3677C14.1765 11.1787 14.2491 10.9528 14.25 10.721V9.59598C14.2491 9.36413 14.1765 9.13824 14.0422 8.94922C13.908 8.76019 13.7186 8.61726 13.5 8.53998V8.09598C13.5 6.70359 12.9469 5.36823 11.9623 4.38367C10.9778 3.3991 9.64241 2.84598 8.25002 2.84598C6.85764 2.84598 5.52228 3.3991 4.53771 4.38367C3.55314 5.36823 3.00002 6.70359 3.00002 8.09598V8.53998C2.78143 8.61726 2.59206 8.76019 2.4578 8.94922C2.32355 9.13824 2.25098 9.36413 2.25002 9.59598V10.721C2.25002 11.0193 2.36855 11.3055 2.57953 11.5165C2.7905 11.7275 3.07665 11.846 3.37502 11.846H4.12502C4.14902 11.846 4.17227 11.8422 4.1959 11.8407C4.3112 12.4625 4.5676 13.0495 4.94539 13.5566C5.32317 14.0637 5.81226 14.4773 6.37502 14.7657V15.3421L3.34315 16.5549C2.57611 16.8588 1.91845 17.3869 1.4559 18.0701C0.993351 18.7533 0.747368 19.56 0.750021 20.3851V23.846C0.750021 23.9454 0.78953 24.0408 0.859856 24.1111C0.930182 24.1815 1.02557 24.221 1.12502 24.221H15.375C15.4745 24.221 15.5699 24.1815 15.6402 24.1111C15.7105 24.0408 15.75 23.9454 15.75 23.846V22.721H17.625C17.7153 22.721 17.8025 22.6885 17.8707 22.6294C17.9389 22.5703 17.9835 22.4886 17.9963 22.3992L18.2055 20.9341C18.4104 20.8644 18.6108 20.7821 18.8055 20.6877L19.9875 21.5742C20.0597 21.6284 20.1491 21.6547 20.2391 21.6482C20.3291 21.6418 20.4138 21.6032 20.4776 21.5394L22.0688 19.9482C22.1326 19.8844 22.1713 19.7997 22.1777 19.7097C22.1841 19.6196 22.1578 19.5303 22.1036 19.4581L21.2171 18.2761C21.3116 18.0814 21.3938 17.881 21.4635 17.6761L22.9286 17.4669C23.0178 17.454 23.0994 17.4094 23.1584 17.3413C23.2174 17.2732 23.25 17.1861 23.25 17.096V14.846C23.25 14.7557 23.2175 14.6685 23.1584 14.6003C23.0993 14.5321 23.0176 14.4875 22.9283 14.4747ZM18.8033 11.2542C18.7856 11.2456 18.7658 11.24 18.7481 11.2317V6.59598H18V9.56973L17.9963 9.54273C17.9835 9.4534 17.9389 9.3717 17.8707 9.3126C17.8025 9.2535 17.7153 9.22097 17.625 9.22098H17.25V6.49848C17.25 6.43799 17.2354 6.3784 17.2074 6.32479C17.1794 6.27118 17.1388 6.22514 17.0891 6.1906C16.8104 5.99653 16.5792 5.74186 16.4129 5.44569C16.2466 5.14953 16.1495 4.81955 16.1289 4.48051C16.1083 4.14147 16.1647 3.80217 16.2939 3.48804C16.4231 3.17392 16.6218 2.89313 16.875 2.66673V4.34598C16.875 4.42472 16.8998 4.50146 16.9458 4.56534C16.9918 4.62921 17.0568 4.67697 17.1315 4.70185L18.2565 5.07685C18.3334 5.10248 18.4166 5.10248 18.4935 5.07685L19.6185 4.70185C19.6932 4.67697 19.7582 4.62921 19.8042 4.56534C19.8503 4.50146 19.875 4.42472 19.875 4.34598V2.66673C20.1284 2.89312 20.3273 3.17398 20.4566 3.48822C20.586 3.80245 20.6425 4.14191 20.6219 4.4811C20.6013 4.82029 20.5041 5.15042 20.3377 5.44668C20.1712 5.74295 19.9399 5.99767 19.6609 6.19173C19.6114 6.22616 19.5709 6.27202 19.5429 6.32542C19.5149 6.37882 19.5002 6.43818 19.5 6.49848V10.7334L18.8033 11.2542ZM13.875 15.971C13.8709 15.3846 14.0618 14.8135 14.4178 14.3476C14.7737 13.8816 15.2744 13.5472 15.8412 13.3969C16.408 13.2466 17.0087 13.2891 17.5487 13.5175C18.0887 13.746 18.5375 14.1475 18.8244 14.6588C19.1113 15.1702 19.22 15.7625 19.1335 16.3424C19.047 16.9224 18.7702 17.4571 18.3465 17.8625C17.9228 18.2679 17.3764 18.5209 16.7932 18.5818C16.21 18.6427 15.6232 18.508 15.1249 18.1989C14.8657 17.7836 14.534 17.4182 14.1458 17.12C13.9674 16.7633 13.8747 16.3698 13.875 15.971V15.971ZM12.375 12.971H11.9198C12.1025 12.6151 12.232 12.2343 12.3041 11.8407C12.3278 11.8407 12.351 11.846 12.375 11.846H12.75V12.596C12.75 12.6954 12.7105 12.7908 12.6402 12.8611C12.5699 12.9315 12.4745 12.971 12.375 12.971ZM11.625 8.84598C11.4504 8.84555 11.2783 8.80469 11.1222 8.72662C10.9661 8.64855 10.8301 8.53538 10.725 8.39598L10.05 7.49598C10.0199 7.4558 9.98198 7.42208 9.93856 7.39683C9.89515 7.37158 9.8471 7.35531 9.79727 7.34898C9.74743 7.34286 9.69687 7.3467 9.64852 7.36029C9.60018 7.37387 9.55501 7.39692 9.51565 7.4281L8.25715 8.43348C7.92509 8.6992 7.51281 8.8446 7.08752 8.84598H4.87502V8.47098C4.87502 7.57587 5.2306 6.71743 5.86354 6.08449C6.49647 5.45156 7.35492 5.09598 8.25002 5.09598C9.14513 5.09598 10.0036 5.45156 10.6365 6.08449C11.2694 6.71743 11.625 7.57587 11.625 8.47098V8.84598ZM13.5 10.721C13.5 10.8204 13.4605 10.9158 13.3902 10.9861C13.3199 11.0565 13.2245 11.096 13.125 11.096H12.375V9.22098H13.125C13.2245 9.22098 13.3199 9.26049 13.3902 9.33081C13.4605 9.40114 13.5 9.49652 13.5 9.59598V10.721ZM8.25002 3.59598C9.4431 3.59727 10.5869 4.07179 11.4306 4.91542C12.2742 5.75906 12.7487 6.9029 12.75 8.09598V8.47098H12.375C12.375 7.37696 11.9404 6.32775 11.1668 5.55416C10.3933 4.78058 9.34404 4.34598 8.25002 4.34598C7.156 4.34598 6.10679 4.78058 5.33321 5.55416C4.55962 6.32775 4.12502 7.37696 4.12502 8.47098H3.75002V8.09598C3.75131 6.9029 4.22583 5.75906 5.06947 4.91542C5.9131 4.07179 7.05694 3.59727 8.25002 3.59598V3.59598ZM3.37502 11.096C3.27557 11.096 3.18018 11.0565 3.10986 10.9861C3.03953 10.9158 3.00002 10.8204 3.00002 10.721V9.59598C3.00002 9.49652 3.03953 9.40114 3.10986 9.33081C3.18018 9.26049 3.27557 9.22098 3.37502 9.22098H4.12502V11.096H3.37502ZM4.87502 11.096V9.59598H7.08752C7.68336 9.59518 8.26132 9.39239 8.72702 9.02073L9.68365 8.25535L10.125 8.84598C10.3002 9.07831 10.5267 9.26693 10.787 9.39705C11.0472 9.52717 11.3341 9.59526 11.625 9.59598V11.096C11.6256 11.7639 11.4269 12.4167 11.0543 12.971H8.25002V13.721H10.3665C9.87129 14.1214 9.27278 14.3734 8.64028 14.4477C8.00777 14.5221 7.36714 14.4158 6.79256 14.1411C6.21797 13.8664 5.73292 13.4347 5.39356 12.8958C5.05421 12.3568 4.87442 11.7328 4.87502 11.096V11.096ZM8.25002 15.221C8.63061 15.22 9.00922 15.1663 9.37502 15.0612V15.596C9.37502 15.8943 9.2565 16.1805 9.04552 16.3915C8.83454 16.6025 8.54839 16.721 8.25002 16.721C7.95165 16.721 7.66551 16.6025 7.45453 16.3915C7.24355 16.1805 7.12502 15.8943 7.12502 15.596V15.0612C7.49082 15.1663 7.86944 15.22 8.25002 15.221ZM15 23.471H12.75V19.346H12V23.471H4.50002V19.346H3.75002V23.471H1.50002V20.3851C1.49784 19.71 1.6991 19.05 2.07757 18.4909C2.45605 17.9319 2.99416 17.4999 3.62177 17.2512L6.4579 16.1169C6.56864 16.5068 6.80354 16.85 7.12696 17.0943C7.45038 17.3387 7.84467 17.4709 8.25002 17.4709C8.65537 17.4709 9.04967 17.3387 9.37309 17.0943C9.69651 16.85 9.9314 16.5068 10.0421 16.1169L12.8783 17.2512C13.5059 17.4999 14.044 17.9319 14.4225 18.4909C14.8009 19.05 15.0022 19.71 15 20.3851V23.471Z" fill="#1990D1"/>
<path d="M16.875 10.7207H16.125V11.4707H16.875V10.7207Z" fill="#1990D1"/>
<path d="M16.875 20.4707H16.125V21.2207H16.875V20.4707Z" fill="#1990D1"/>
<path d="M19.9468 18.8877L19.4165 19.418L19.9468 19.9483L20.4772 19.418L19.9468 18.8877Z" fill="#1990D1"/>
<path d="M21.75 15.5957H21V16.3457H21.75V15.5957Z" fill="#1990D1"/>
<path d="M19.9468 11.9936L19.4165 12.5239L19.9468 13.0543L20.4772 12.5239L19.9468 11.9936Z" fill="#1990D1"/>
</g>
<defs>
<clipPath id="clip0">
<rect width="24" height="24" fill="white" transform="translate(0 0.970703)"/>
</clipPath>
</defs>
</svg>
