<svg width="24" height="25" viewBox="0 0 24 25" fill="none" xmlns="http://www.w3.org/2000/svg">
<g clip-path="url(#clip0)">
<path d="M22.0062 6.07629H21.7629C21.6191 5.57122 21.4182 5.08664 21.1628 4.62849L21.3357 4.45553C21.5336 4.25777 21.6425 3.99401 21.6425 3.71281C21.6425 3.43162 21.5336 3.16791 21.3356 2.96991L20.1834 1.81911C19.9856 1.62004 19.7215 1.51045 19.4398 1.51045C19.1581 1.51045 18.894 1.62004 18.6971 1.81813L18.5244 1.99086C18.0659 1.73469 17.5812 1.53342 17.0764 1.38965V1.14643C17.0765 0.567066 16.6051 0.0957031 16.0257 0.0957031H14.3968C13.8174 0.0957031 13.3461 0.567066 13.3461 1.14643V1.38965C12.8414 1.53337 12.3564 1.73469 11.897 1.99105L11.725 1.81911C11.5271 1.62004 11.263 1.51045 10.9813 1.5105C10.6997 1.5105 10.4356 1.62013 10.2387 1.81818L9.08678 2.97015C8.88892 3.16791 8.78003 3.43167 8.78003 3.71286C8.78003 3.99406 8.88892 4.25777 9.08673 4.45553L9.2596 4.62845C9.00315 5.088 8.80216 5.57267 8.65915 6.07629H8.41498C7.83562 6.07629 7.36426 6.54765 7.36426 7.12701V8.75737C7.36426 9.33673 7.83562 9.8081 8.41498 9.8081H8.65915C8.80216 10.3117 9.00315 10.7963 9.2596 11.2559L9.08673 11.4289C8.88887 11.6266 8.77999 11.8904 8.77999 12.1716C8.77999 12.4527 8.88888 12.7165 9.08668 12.9142L10.2377 14.0653C10.4356 14.2643 10.6996 14.3739 10.9813 14.3739H10.9813C11.263 14.3739 11.5271 14.2643 11.724 14.0663L11.8969 13.8933C12.3568 14.1499 12.8418 14.351 13.346 14.4939V14.738C13.346 15.3174 13.8174 15.7887 14.3967 15.7887H16.0257C16.6051 15.7887 17.0764 15.3174 17.0764 14.738V14.4939C17.5807 14.3509 18.0654 14.15 18.5244 13.8935L18.6961 14.0653C18.894 14.2643 19.1581 14.3739 19.4397 14.3739C19.7215 14.3739 19.9856 14.2643 20.1823 14.0664L21.3357 12.9142C21.5336 12.7164 21.6424 12.4527 21.6424 12.1715C21.6424 11.8903 21.5336 11.6266 21.3357 11.4289L21.1628 11.2559C21.4182 10.7977 21.619 10.3132 21.7629 9.8081H22.0061C22.5855 9.8081 23.0569 9.33673 23.0569 8.75737V7.12701C23.0569 6.54765 22.5856 6.07629 22.0062 6.07629V6.07629ZM16.139 14.738C16.139 14.7994 16.0871 14.8512 16.0257 14.8512H14.3968C14.3354 14.8512 14.2835 14.7994 14.2835 14.738V14.1294V11.1743C14.2835 10.9783 14.1616 10.803 13.9778 10.7348C12.7182 10.2677 11.872 9.05544 11.872 7.71832C11.872 6.65865 12.3996 5.6653 13.2832 5.06133C13.3229 5.03423 13.3579 5.01211 13.3886 4.99397C13.3869 5.05491 13.3826 5.11284 13.3803 5.14307C13.3768 5.19065 13.3739 5.2282 13.3739 5.26546V7.47777C13.3739 8.49319 14.1674 9.34123 15.1802 9.4084C15.2009 9.40976 15.2216 9.40976 15.2422 9.4084C16.2543 9.34128 17.0472 8.49324 17.0472 7.47777V5.26546C17.0472 5.22839 17.0444 5.19107 17.0409 5.14378C17.0387 5.1134 17.0344 5.05514 17.0327 4.99392C17.0633 5.01202 17.0982 5.03409 17.1377 5.06114C18.0215 5.66525 18.5491 6.6586 18.5491 7.71828C18.5491 9.05526 17.7034 10.2676 16.4445 10.7348C16.2608 10.803 16.1389 10.9783 16.1389 11.1743V14.1293V14.738H16.139ZM22.1194 8.75737C22.1194 8.8177 22.0665 8.87062 22.0062 8.87062H21.399C21.18 8.87062 20.9901 9.02226 20.9418 9.23586C20.7934 9.89177 20.5363 10.512 20.1776 11.0793C20.0605 11.2646 20.0874 11.5062 20.2424 11.6612L20.673 12.0917C20.7009 12.1197 20.7051 12.1537 20.7051 12.1715C20.7051 12.1893 20.7009 12.2234 20.6731 12.2511L19.5186 13.4043C19.4922 13.4308 19.4612 13.4364 19.4398 13.4364C19.4185 13.4364 19.3874 13.4308 19.3601 13.4033L18.9295 12.9727C18.7743 12.8176 18.5324 12.7909 18.3472 12.9082C17.9471 13.1618 17.5212 13.363 17.0765 13.5116V11.4861C18.5307 10.8093 19.4867 9.33453 19.4867 7.71823C19.4867 6.34872 18.8063 5.06606 17.6668 4.28716C17.4923 4.16787 16.9614 3.80492 16.4972 4.07215C16.0413 4.33464 16.0867 4.94995 16.106 5.21273C16.1077 5.23556 16.1094 5.25473 16.1097 5.26546V7.47777C16.1097 7.99085 15.7176 8.42101 15.2113 8.47046C14.7042 8.42096 14.3115 7.9908 14.3115 7.47777L14.3114 5.26884C14.3118 5.25473 14.3135 5.23556 14.3152 5.21264C14.3348 4.95 14.3806 4.33502 13.925 4.07238C13.4609 3.80469 12.9293 4.16777 12.7544 4.28716C11.6148 5.06611 10.9345 6.34876 10.9345 7.71828C10.9345 9.33481 11.891 10.8097 13.3461 11.4863V13.5117C12.9013 13.363 12.4749 13.1617 12.0736 12.908C11.9964 12.8593 11.9096 12.8355 11.8232 12.8355C11.7021 12.8355 11.5821 12.8824 11.4916 12.9728L11.0602 13.4043C11.0338 13.4309 11.0027 13.4365 10.9814 13.4365C10.96 13.4365 10.929 13.4309 10.9016 13.4034L9.74967 12.2513C9.72168 12.2234 9.71751 12.1893 9.71751 12.1716C9.71751 12.1538 9.72168 12.1197 9.74967 12.0917L10.1802 11.6612C10.3351 11.5062 10.362 11.2646 10.2449 11.0793C9.88447 10.509 9.62742 9.88905 9.48094 9.23666C9.43294 9.02268 9.24291 8.87057 9.02359 8.87057H8.41507C8.35475 8.87057 8.30183 8.81765 8.30183 8.75733V7.12696C8.30183 7.06556 8.35367 7.01371 8.41507 7.01371H9.02359C9.24291 7.01371 9.43289 6.86161 9.48094 6.64763C9.62742 5.99524 9.88443 5.37524 10.2449 4.80497C10.362 4.61973 10.3351 4.37805 10.1802 4.22308L9.74962 3.79255C9.72168 3.76461 9.71751 3.73058 9.71751 3.71277C9.71751 3.69496 9.72168 3.66092 9.74967 3.63294L10.9026 2.47994C10.929 2.45341 10.96 2.44783 10.9814 2.44783C11.0028 2.44783 11.0338 2.45341 11.0612 2.48092L11.4917 2.91146C11.6467 3.06647 11.8884 3.09333 12.0736 2.97624C12.6432 2.61615 13.2638 2.35858 13.9182 2.21079C14.1319 2.16251 14.2836 1.97262 14.2836 1.75358V1.14643C14.2836 1.08502 14.3355 1.03318 14.3969 1.03318H16.0258C16.0872 1.03318 16.1391 1.08502 16.1391 1.14643V1.75368C16.1391 1.97276 16.2908 2.1626 16.5045 2.21088C17.1594 2.35882 17.7794 2.61625 18.3473 2.9761C18.5326 3.09347 18.7744 3.06675 18.9296 2.9116L19.3611 2.48008C19.3875 2.45355 19.4186 2.44797 19.4399 2.44797C19.4613 2.44797 19.4923 2.45355 19.5199 2.48125L20.673 3.63308C20.701 3.66102 20.7052 3.69505 20.7052 3.71286C20.7052 3.73067 20.701 3.7647 20.673 3.79269L20.2425 4.22322C20.0875 4.37819 20.0606 4.61987 20.1777 4.80511C20.5363 5.37243 20.7935 5.99262 20.9419 6.64857C20.9902 6.86217 21.1801 7.01381 21.3991 7.01381H22.0063C22.0677 7.01381 22.1195 7.06565 22.1195 7.12706V8.75737H22.1194Z" fill="#1990D1"/>
<path d="M17.9429 20.7352C17.7599 20.9183 17.7599 21.2151 17.9429 21.3982C18.0345 21.4897 18.1544 21.5355 18.2744 21.5355C18.3943 21.5355 18.5143 21.4897 18.6058 21.3982L18.6072 21.3969C18.7902 21.2138 18.7895 20.9176 18.6065 20.7346C18.4234 20.5516 18.126 20.5523 17.9429 20.7352V20.7352Z" fill="#1990D1"/>
<path d="M20.1141 16.1943L16.3927 18.1054C16.0773 17.7787 15.6352 17.5749 15.1463 17.5749H12.5965C12.4538 17.5749 12.4189 17.5635 12.4165 17.5627C12.3959 17.5518 12.3305 17.4904 12.2781 17.4411L12.2548 17.4193C10.192 15.4774 8.44948 15.6005 6.46789 16.3825C6.14727 16.5091 6.14108 16.5094 5.81911 16.5231L5.24256 16.5235C5.07831 16.028 4.61089 15.6694 4.06101 15.6694H2.18625C1.50062 15.6694 0.942871 16.2278 0.942871 16.9142V21.8345C0.942871 22.5201 1.50062 23.0779 2.18625 23.0779H4.06101C4.61084 23.0779 5.07822 22.7197 5.24251 22.2248H6.29717C6.39031 22.2248 6.39031 22.2248 6.49864 22.2553C6.53801 22.2664 6.58592 22.2799 6.64779 22.2966L11.4989 23.5944C11.7128 23.6522 11.9089 23.709 12.0986 23.7639C12.7202 23.944 13.2426 24.0954 13.7871 24.0954C14.4026 24.0954 15.0461 23.902 15.8925 23.338C15.8966 23.3352 15.9007 23.3324 15.9047 23.3296L16.8308 22.6692C17.0416 22.5188 17.0907 22.2262 16.9403 22.0154C16.79 21.8045 16.4972 21.7555 16.2866 21.9059L15.3666 22.5619C14.1383 23.3788 13.6168 23.2278 12.3595 22.8635C12.1658 22.8074 11.9656 22.7494 11.7424 22.6891L6.89088 21.3912C6.83407 21.3759 6.78949 21.3633 6.75293 21.353C6.57593 21.3032 6.50975 21.2874 6.29722 21.2874H5.30575V17.4614H5.81231C5.81906 17.4614 5.82572 17.4612 5.83247 17.461L5.85918 17.4598C6.25213 17.443 6.36205 17.4323 6.81213 17.2546C8.55251 16.5678 9.89591 16.4862 11.6129 18.1026L11.6361 18.1244C11.9295 18.4001 12.0985 18.5124 12.5966 18.5124H15.1463C15.4456 18.5124 15.7065 18.6786 15.8426 18.9233C15.844 18.926 15.8457 18.9286 15.8472 18.9313C15.9079 19.0437 15.9425 19.1722 15.9425 19.3087C15.9425 19.747 15.5854 20.1036 15.1464 20.1036H11.0141C10.7553 20.1036 10.5454 20.3134 10.5454 20.5723C10.5454 20.8312 10.7553 21.041 11.0141 21.041H15.1464C16.1023 21.041 16.88 20.2639 16.88 19.3087C16.88 19.1788 16.8652 19.0525 16.838 18.9307L20.5424 17.0284C20.893 16.8484 21.3724 16.8677 21.6104 17.2539C21.821 17.5944 21.7052 18.0469 21.3412 18.3064L19.7162 19.4637C19.5053 19.6139 19.4561 19.9066 19.6063 20.1174C19.6977 20.2458 19.842 20.3143 19.9885 20.3143C20.0826 20.3143 20.1775 20.286 20.26 20.2274L21.8852 19.0699C22.657 18.5196 22.8816 17.527 22.4081 16.7615C21.9424 16.0058 20.9563 15.7619 20.1141 16.1943V16.1943ZM4.36822 21.8345C4.36822 22.0003 4.22755 22.1404 4.06101 22.1404H2.18625C2.02041 22.1404 1.88035 22.0003 1.88035 21.8345V16.9142C1.88035 16.7448 2.01759 16.607 2.18625 16.607H4.06101C4.22755 16.607 4.36822 16.7476 4.36822 16.9142V21.8345Z" fill="#1990D1"/>
</g>
<defs>
<clipPath id="clip0">
<rect width="24" height="24" fill="white" transform="translate(0 0.0957031)"/>
</clipPath>
</defs>
</svg>
