<svg width="24" height="25" viewBox="0 0 24 25" fill="none" xmlns="http://www.w3.org/2000/svg">
<g clip-path="url(#clip0)">
<path d="M20.3786 11.6872L20.1715 11.687V10.3675C20.1715 9.34222 20.5777 8.36206 21.1176 7.75761C21.8384 6.95131 22.2353 5.91111 22.2353 4.82867C22.2353 3.32792 21.4555 1.89819 20.2001 1.09742C19.6647 0.755938 18.9618 1.14528 18.9618 1.77997V4.54986C18.9618 5.16922 18.4579 5.67308 17.8386 5.67308C17.2192 5.67308 16.7153 5.16922 16.7153 4.54986V1.78002C16.7153 1.14383 16.011 0.756735 15.477 1.09747C14.2216 1.89819 13.4417 3.32792 13.4417 4.82872C13.4417 5.91116 13.8387 6.95136 14.5593 7.75742C15.0223 8.27666 15.4082 9.11028 15.4885 10.0014C14.5157 10.0896 13.6614 10.5268 13.1064 11.2314L12.5064 11.9934C12.2061 12.3748 11.7554 12.5936 11.2698 12.5936H10.737C10.717 11.8544 10.1099 11.2592 9.36613 11.2592C8.73201 11.2592 8.19721 11.6918 8.04074 12.2773H2.89565C2.27198 12.2773 1.76465 12.7847 1.76465 13.4083V19.3215C1.76465 19.9452 2.27202 20.4525 2.89565 20.4525H8.15423C8.3849 20.8864 8.84151 21.1826 9.36623 21.1826C10.0435 21.1826 10.6073 20.6892 10.718 20.0429H12.0592C12.2596 20.0429 12.4556 20.0805 12.6417 20.1547C13.6959 20.5383 14.2175 20.8898 15.5056 21.1171V22.6379C15.5056 23.9243 16.5522 24.9709 17.8386 24.9709C19.125 24.9709 20.1715 23.9243 20.1715 22.6379V20.6038C20.3411 20.3476 20.4252 20.0456 20.4104 19.7307C20.397 19.4467 20.2968 19.1769 20.1316 18.9517C20.6696 18.7499 21.0531 18.2375 21.0539 17.6389C21.0545 17.2133 20.8974 16.835 20.637 16.5629C21.0112 16.3068 21.2639 15.8877 21.2796 15.4151C21.2913 15.0672 21.1774 14.74 20.978 14.4797C21.4864 14.2507 21.841 13.7398 21.841 13.1477C21.841 12.3423 21.1849 11.6872 20.3786 11.6872V11.6872ZM10.0349 19.8106C10.0349 20.1794 9.73495 20.4794 9.36618 20.4794C8.99741 20.4794 8.69746 20.1794 8.69746 19.8106V18.9536C8.69746 18.7595 8.54006 18.602 8.3459 18.602C8.15174 18.602 7.99434 18.7595 7.99434 18.9536V19.7494H2.89565C2.65973 19.7494 2.46777 19.5574 2.46777 19.3215V13.4083C2.46777 13.1724 2.65973 12.9804 2.89565 12.9804H7.99434V17.309C7.99434 17.5032 8.15174 17.6606 8.3459 17.6606C8.54006 17.6606 8.69746 17.5032 8.69746 17.309V12.6323C8.69746 12.6317 8.69746 12.6312 8.69746 12.6306C8.6977 12.2621 8.9976 11.9623 9.36618 11.9623C9.73495 11.9623 10.0349 12.2623 10.0349 12.6311V19.8106H10.0349ZM15.0837 7.289C14.4783 6.61175 14.1449 5.738 14.1449 4.82867C14.1449 3.56567 14.8002 2.36309 15.8551 1.69025C15.9231 1.64684 16.0122 1.69869 16.0122 1.78002V4.54991C16.0122 5.55697 16.8315 6.37625 17.8386 6.37625C18.8456 6.37625 19.6649 5.55697 19.6649 4.54991V1.78002C19.6649 1.69883 19.7538 1.64675 19.822 1.69025C20.8769 2.36314 21.5322 3.56572 21.5322 4.82867C21.5322 5.738 21.1988 6.61175 20.5933 7.28909C19.9428 8.01777 19.4684 9.16302 19.4684 10.3675V11.6864L18.8523 11.686V10.9605C18.8523 10.7664 18.6949 10.609 18.5008 10.609C18.3066 10.609 18.1492 10.7664 18.1492 10.9605V11.6854L17.5278 11.6849V9.06556C17.5278 8.89424 17.6672 8.75488 17.8385 8.75488C18.0098 8.75488 18.1492 8.89424 18.1492 9.06556V9.31588C18.1492 9.51003 18.3066 9.66744 18.5008 9.66744C18.6949 9.66744 18.8523 9.51003 18.8523 9.31588V9.06556C18.8523 8.50653 18.3975 8.05175 17.8385 8.05175C17.2795 8.05175 16.8247 8.50653 16.8247 9.06556V11.6843L16.5667 11.6841C16.3467 11.6841 16.2083 11.5126 16.2083 11.3C16.2087 10.4663 16.3659 8.72567 15.0837 7.289V7.289ZM19.4684 22.6378C19.4684 23.5364 18.7372 24.2676 17.8386 24.2676C16.9399 24.2676 16.2087 23.5364 16.2087 22.6378V21.2107C16.4133 21.2292 16.6187 21.2404 16.8247 21.2439V22.5347C16.8247 23.0938 17.2796 23.5485 17.8386 23.5485C18.3976 23.5485 18.8524 23.0938 18.8524 22.5347V21.2603C18.8931 21.2575 19.1594 21.284 19.4684 21.1675V22.6378ZM17.5279 22.5347V21.2498L18.1492 21.2547V22.5347C18.1492 22.706 18.0099 22.8454 17.8386 22.8454C17.6673 22.8454 17.5279 22.706 17.5279 22.5347V22.5347ZM20.3783 13.9049H19.9455C19.7514 13.9049 19.594 14.0623 19.594 14.2565V14.2637C19.594 14.4426 19.7284 14.593 19.9062 14.613C20.2954 14.6569 20.59 14.9988 20.5769 15.3915C20.5634 15.7946 20.2109 16.1226 19.7908 16.1226L19.6402 16.1227C19.4461 16.1228 19.2889 16.2814 19.2889 16.4755C19.2889 16.6643 19.4381 16.8194 19.6268 16.8267C20.0469 16.8431 20.3514 17.1842 20.3508 17.6379C20.3503 18.0252 20.0239 18.3403 19.6233 18.3403H19.3868C19.1669 18.3403 18.9881 18.5191 18.9881 18.739C18.9881 18.8998 19.0842 19.0441 19.2329 19.1065C19.5124 19.2237 19.6945 19.4755 19.708 19.7637C19.7285 20.198 19.3824 20.558 18.9544 20.558C17.0561 20.5293 16.6855 20.5775 15.8994 20.4677C15.8969 20.4673 15.8943 20.4669 15.8917 20.4666C14.5203 20.2736 13.8697 19.8474 12.9019 19.5014C12.6326 19.3942 12.3491 19.3398 12.0592 19.3398H10.7381V13.2966H11.2699C11.9723 13.2966 12.6244 12.9801 13.0589 12.4283L13.6589 11.6664C14.0844 11.1261 14.7448 10.786 15.5053 10.706V11.3C15.5051 11.9019 15.9583 12.3874 16.5666 12.3874C17.0238 12.3877 19.3661 12.3896 19.8197 12.39H19.82H19.8203L20.3784 12.3905C20.7972 12.3905 21.1379 12.7302 21.1379 13.1478C21.1379 13.5652 20.7972 13.9049 20.3783 13.9049V13.9049Z" fill="#1990D1"/>
</g>
<defs>
<clipPath id="clip0">
<rect width="24" height="24" fill="white" transform="translate(0 0.970703)"/>
</clipPath>
</defs>
</svg>
